<svg xmlns="http://www.w3.org/2000/svg" width="100px" height="100px" viewBox="0 0 100 100"><path d="M96.19 3.81l0 0c5.08,5.08 5.08,13.39 0,18.48l-27.72 27.71 27.72 27.71c5.08,5.09 5.08,13.4 0,18.48l0 0c-5.08,5.08 -13.39,5.08 -18.47,0l-27.72 -27.72 -27.71 27.72c-5.09,5.08 -13.4,5.08 -18.48,0l0 0c-5.08,-5.08 -5.08,-13.4 0,-18.48l27.72 -27.71 -27.72 -27.71c-5.08,-5.08 -5.08,-13.4 0,-18.48l0 0c5.08,-5.08 13.39,-5.08 18.48,0l27.71 27.72 27.72 -27.72c5.08,-5.08 13.39,-5.08 18.47,0z" fill="brown"/></svg>
